<?xml version="1.0" encoding="UTF-8" standalone="no"?>
<!-- Created with Inkscape (http://www.inkscape.org/) -->

<svg
   xmlns:dc="http://purl.org/dc/elements/1.1/"
   xmlns:cc="http://creativecommons.org/ns#"
   xmlns:rdf="http://www.w3.org/1999/02/22-rdf-syntax-ns#"
   xmlns:svg="http://www.w3.org/2000/svg"
   xmlns="http://www.w3.org/2000/svg"
   xmlns:sodipodi="http://sodipodi.sourceforge.net/DTD/sodipodi-0.dtd"
   xmlns:inkscape="http://www.inkscape.org/namespaces/inkscape"
   width="256"
   height="256"
   viewBox="0 0 256 256"
   id="svg2"
   version="1.1"
   inkscape:version="0.91 r13725"
   sodipodi:docname="gjs.svg">
  <defs
     id="defs4" />
  <sodipodi:namedview
     id="base"
     pagecolor="#ffffff"
     bordercolor="#666666"
     borderopacity="1.0"
     inkscape:pageopacity="0.0"
     inkscape:pageshadow="2"
     inkscape:zoom="2"
     inkscape:cx="126.93623"
     inkscape:cy="127.25"
     inkscape:document-units="px"
     inkscape:current-layer="layer1"
     showgrid="false"
     units="px"
     inkscape:window-width="1215"
     inkscape:window-height="776"
     inkscape:window-x="65"
     inkscape:window-y="24"
     inkscape:window-maximized="1" />
  <metadata
     id="metadata7">
    <rdf:RDF>
      <cc:Work
         rdf:about="">
        <dc:format>image/svg+xml</dc:format>
        <dc:type
           rdf:resource="http://purl.org/dc/dcmitype/StillImage" />
        <dc:title />
      </cc:Work>
    </rdf:RDF>
  </metadata>
  <g
     inkscape:label="Layer 1"
     inkscape:groupmode="layer"
     id="layer1"
     transform="translate(0,-796.36216)">
    <rect
       style="fill:#ffffff;fill-rule:evenodd;stroke:#ffffff;stroke-width:6.2;stroke-linecap:round;stroke-linejoin:round;stroke-opacity:1;fill-opacity:0;stroke-miterlimit:4;stroke-dasharray:none;stroke-dashoffset:0"
       id="rect3355"
       width="234.9782"
       height="234.9782"
       x="10.5109"
       y="806.87305" />
    <g
       transform="matrix(3.6403599,0,0,3.6735565,-209.17009,509.69052)"
       style="font-style:normal;font-weight:normal;font-size:40px;line-height:125%;font-family:sans-serif;letter-spacing:0px;word-spacing:0px;fill:none;fill-opacity:1;stroke:#ffffff;stroke-width:2.2000761;stroke-linecap:butt;stroke-linejoin:miter;stroke-miterlimit:4;stroke-dasharray:none;stroke-opacity:1"
       id="flowRoot4274">
      <path
         d="m 90.925781,105.20981 3.945313,0 0,27.12891 q 0,5.27343 -2.011719,7.65625 -1.992188,2.38281 -6.425781,2.38281 l -1.503907,0 0,-3.32031 1.230469,0 q 2.617188,0 3.691406,-1.46485 1.074219,-1.46484 1.074219,-5.2539 l 0,-27.12891 z"
         style="stroke-width:2.2000761;stroke-miterlimit:4;stroke-dasharray:none"
         id="path3340"
         inkscape:connector-curvature="0" />
      <path
         d="m 120.20313,106.16684 0,3.84766 q -2.2461,-1.07422 -4.23829,-1.60156 -1.99218,-0.52735 -3.84765,-0.52735 -3.22266,0 -4.98047,1.25 -1.73828,1.25 -1.73828,3.55469 0,1.93359 1.15234,2.92969 1.17188,0.97656 4.41406,1.58203 l 2.38282,0.48828 q 4.41406,0.83984 6.5039,2.96875 2.10938,2.10937 2.10938,5.66406 0,4.23828 -2.85156,6.42578 -2.83204,2.1875 -8.32032,2.1875 -2.07031,0 -4.41406,-0.46875 -2.32422,-0.46875 -4.82422,-1.38672 l 0,-4.0625 q 2.40235,1.34766 4.70703,2.03125 2.30469,0.6836 4.53125,0.6836 3.37891,0 5.21485,-1.32813 1.83593,-1.32812 1.83593,-3.78906 0,-2.14844 -1.32812,-3.35937 -1.30859,-1.21094 -4.31641,-1.81641 l -2.40234,-0.46875 q -4.41406,-0.87891 -6.38672,-2.75391 -1.97266,-1.875 -1.97266,-5.21484 0,-3.86719 2.71485,-6.09375 2.73437,-2.22656 7.51953,-2.22656 2.05078,0 4.17969,0.37109 2.1289,0.37109 4.35547,1.11328 z"
         style="stroke-width:2.2000761;stroke-miterlimit:4;stroke-dasharray:none"
         id="path3342"
         inkscape:connector-curvature="0" />
    </g>
  </g>
</svg>
